<?xml version="1.0" encoding="UTF-8"?>
<svg width="14px" height="17px" viewBox="0 0 14 17" version="1.1" xmlns="http://www.w3.org/2000/svg" xmlns:xlink="http://www.w3.org/1999/xlink">
    <!-- Generator: Sketch 52.1 (67048) - http://www.bohemiancoding.com/sketch -->
    <title>Shape</title>
    <desc>Created with Sketch.</desc>
    <g id="Desktop-sandbox" stroke="none" stroke-width="1" fill="none" fill-rule="evenodd">
        <g id="Headphones-Edition-Copy" transform="translate(-127.000000, -658.000000)" fill="#99A0AE">
            <g id="Group-14" transform="translate(24.000000, 64.000000)">
                <g id="Group-16" transform="translate(0.000000, 566.000000)">
                    <g id="Group-2">
                        <g id="Group-6" transform="translate(0.000000, 28.000000)">
                            <g id="Group-8" transform="translate(103.000000, 0.000000)">
                                <path d="M11.6923731,8.97154116 C11.7165344,11.5635585 13.9749795,12.4261165 14,12.437126 C13.9809038,12.4979583 13.6391381,13.6663556 12.8101438,14.8732266 C12.0935147,15.9166277 11.3497482,16.9562067 10.1780962,16.9777373 C9.02683091,16.9988693 8.65663488,16.2976428 7.34041273,16.2976428 C6.02458817,16.2976428 5.61328354,16.9562049 4.52348272,16.9988693 C3.39254129,17.0415025 2.53134126,15.8705692 1.80875668,14.8309903 C0.332242595,12.7044966 -0.796119674,8.82201859 0.718985641,6.20128264 C1.47165764,4.89981451 2.81673939,4.07567056 4.27670537,4.05453693 C5.38726095,4.03343391 6.43549342,4.79882658 7.11439012,4.79882658 C7.79285637,4.79882658 9.06668191,3.87837482 10.4058077,4.0135548 C10.9664115,4.0367985 12.5400356,4.23914165 13.5505029,5.71255143 C13.4690842,5.76283205 11.6728473,6.80451975 11.6923731,8.97154361 M10.2144797,2.76645283 C10.7313904,2.03404741 11.0793011,1.01447133 10.9843873,0 C10.2392994,0.0350527569 9.33832062,0.581179017 8.80388562,1.31318149 C8.32492922,1.96140376 7.90547109,2.99892486 8.01864815,3.99331761 C8.84913616,4.06852905 9.69754357,3.49932401 10.2144797,2.76645402" id="Shape"></path>
                            </g>
                        </g>
                    </g>
                </g>
            </g>
        </g>
    </g>
</svg>