<?xml version="1.0" encoding="UTF-8"?>
<svg width="16px" height="16px" viewBox="0 0 16 16" version="1.1" xmlns="http://www.w3.org/2000/svg" xmlns:xlink="http://www.w3.org/1999/xlink">
    <!-- Generator: Sketch 52.1 (67048) - http://www.bohemiancoding.com/sketch -->
    <title>windows logo</title>
    <desc>Created with Sketch.</desc>
    <g id="Desktop-sandbox" stroke="none" stroke-width="1" fill="none" fill-rule="evenodd">
        <g id="Headphones-Edition-Copy" transform="translate(-24.000000, -660.000000)" fill="#99A0AE">
            <g id="Group-14" transform="translate(24.000000, 64.000000)">
                <g id="Group-16" transform="translate(0.000000, 566.000000)">
                    <g id="Group-2">
                        <g id="Group-6" transform="translate(0.000000, 28.000000)">
                            <g id="Group-7" transform="translate(0.000000, 2.000000)">
                                <path d="M7.2741073,1.19444473 C10.1784584,0.775452237 13.0882887,0.380748051 15.99816,0 C16,2.40454191 15.99816,4.80734895 16,7.21185231 C13.0920097,7.22230013 10.1839785,7.26401433 7.2741073,7.27272727 C7.27226726,5.24546365 7.27226726,3.21997347 7.2741073,1.19444473 Z M0,2.27983256 C2.17450019,1.97163375 4.35814787,1.70548921 6.54179555,1.45454545 C6.54362505,3.38642766 6.54362505,5.31666653 6.54545455,7.24858609 C4.36363636,7.24690541 2.18181818,7.27723229 0,7.27215291 L0,2.27983256 Z M0,8.00093814 C2.18078871,7.99419608 4.36157742,8.02611843 6.54236614,8.02276602 C6.54236614,9.95457129 6.54785664,11.8863766 6.5441963,13.8181818 C4.36523776,13.5225369 2.18261888,13.2638429 0,12.9933782 L0,8.00093814 Z M7.27272727,8 C10.1824988,8 13.0904327,8 15.9983665,8 C16.0020418,10.4236708 15.9983665,12.8473027 15.9983665,15.2727273 C13.0978241,14.8579479 10.1917279,14.4730211 7.28563164,14.096902 C7.28195635,12.0652119 7.2764434,10.0334828 7.27272727,8 Z" id="windows-logo"></path>
                            </g>
                        </g>
                    </g>
                </g>
            </g>
        </g>
    </g>
</svg>